C:\Users\u0150099\Documents\master_thesis\3dpredictsim\Polynomials\Fal_s1_mtjc5_FK_sc_MTc5\dummy_motion.mot
nRows=15
nColumns=34

name C:\Users\u0150099\Documents\master_thesis\3dpredictsim\Polynomials\Fal_s1_mtjc5_FK_sc_MTc5\dummy_motion.mot
datacolumns 34
datarows 15
range 12.5100000000 12.6500000000
endheader
time	pelvis_tilt	pelvis_list	pelvis_rotation	pelvis_tx	pelvis_ty	pelvis_tz	hip_flexion_r	hip_adduction_r	hip_rotation_r	knee_angle_r	ankle_angle_r	subtalar_angle_r	mtj_angle_r	mtp_angle_r	hip_flexion_l	hip_adduction_l	hip_rotation_l	knee_angle_l	ankle_angle_l	subtalar_angle_l	mtj_angle_l	mtp_angle_l	lumbar_extension	lumbar_bending	lumbar_rotation	arm_flex_r	arm_add_r	arm_rot_r	elbow_flex_r	arm_flex_l	arm_add_l	arm_rot_l	elbow_flex_l
       12.5100000000	        0.0000000000	        0.0000000000	        0.0000000000	        0.0000000000	        0.0000000000	        0.0000000000	      -36.0031577508	       27.1105872516	      -12.0658790706	      -30.8999157947	       18.8857224656	       16.6739496729	       11.8521265094	      -18.4446587747	        0.0000000000	        0.0000000000	        0.0000000000	        0.0000000000	        0.0000000000	        0.0000000000	        0.0000000000	        0.0000000000	        1.4918427952	      -23.9483084796	      -18.9808181335	        0.0000000000	        0.0000000000	        0.0000000000	        0.0000000000	        0.0000000000	        0.0000000000	        0.0000000000	        0.0000000000	
       12.5200000000	        0.0000000000	        0.0000000000	        0.0000000000	        0.0000000000	        0.0000000000	        0.0000000000	      -11.9474663779	      -10.3512170260	      -28.3277972593	      -28.8442856888	        4.9145695406	      -11.5886794248	       29.3256050425	       22.3897065759	        0.0000000000	        0.0000000000	        0.0000000000	        0.0000000000	        0.0000000000	        0.0000000000	        0.0000000000	        0.0000000000	       11.7098151048	      -15.4190436530	      -27.9328020121	        0.0000000000	        0.0000000000	        0.0000000000	        0.0000000000	        0.0000000000	        0.0000000000	        0.0000000000	        0.0000000000	
       12.5300000000	        0.0000000000	        0.0000000000	        0.0000000000	        0.0000000000	        0.0000000000	        0.0000000000	        4.8773702323	       12.4052336798	       -1.7927512739	      -74.0361697497	       26.7103250707	        7.6418643016	      -24.4213444287	        1.2486815915	        0.0000000000	        0.0000000000	        0.0000000000	        0.0000000000	        0.0000000000	        0.0000000000	        0.0000000000	        0.0000000000	       26.0208767771	        7.9806295006	       27.1161201844	        0.0000000000	        0.0000000000	        0.0000000000	        0.0000000000	        0.0000000000	        0.0000000000	        0.0000000000	        0.0000000000	
       12.5400000000	        0.0000000000	        0.0000000000	        0.0000000000	        0.0000000000	        0.0000000000	        0.0000000000	      -49.5170517233	       19.9055402454	       16.2852287143	      -18.8669676795	       -5.0845868724	      -21.1611892327	      -21.2867925917	       20.2508172719	        0.0000000000	        0.0000000000	        0.0000000000	        0.0000000000	        0.0000000000	        0.0000000000	        0.0000000000	        0.0000000000	       23.0082804965	       -4.3943932647	      -20.2150934595	        0.0000000000	        0.0000000000	        0.0000000000	        0.0000000000	        0.0000000000	        0.0000000000	        0.0000000000	        0.0000000000	
       12.5500000000	        0.0000000000	        0.0000000000	        0.0000000000	        0.0000000000	        0.0000000000	        0.0000000000	      -27.0342052394	       -4.2763179854	       -9.2480558525	      -85.0616174304	      -20.7684133577	       29.9836505726	       -8.0465348781	       10.1106806027	        0.0000000000	        0.0000000000	        0.0000000000	        0.0000000000	        0.0000000000	        0.0000000000	        0.0000000000	        0.0000000000	      -20.8320528102	       29.3885496795	       -0.8561267332	        0.0000000000	        0.0000000000	        0.0000000000	        0.0000000000	        0.0000000000	        0.0000000000	        0.0000000000	        0.0000000000	
       12.5600000000	        0.0000000000	        0.0000000000	        0.0000000000	        0.0000000000	        0.0000000000	        0.0000000000	      -24.8526985258	       -6.6566435871	      -19.1891523347	      -49.3736113578	       -9.5574625306	      -28.6762599684	       28.0285794832	      -22.5105842250	        0.0000000000	        0.0000000000	        0.0000000000	        0.0000000000	        0.0000000000	        0.0000000000	        0.0000000000	        0.0000000000	       10.5506590543	      -20.0071252329	        0.3967558540	        0.0000000000	        0.0000000000	        0.0000000000	        0.0000000000	        0.0000000000	        0.0000000000	        0.0000000000	        0.0000000000	
       12.5700000000	        0.0000000000	        0.0000000000	        0.0000000000	        0.0000000000	        0.0000000000	        0.0000000000	      -29.3797042988	      -16.3915743849	      -20.9910411485	      -39.1375746860	       25.0062812343	      -17.4109990639	        9.7870896719	       -9.7792390432	        0.0000000000	        0.0000000000	        0.0000000000	        0.0000000000	        0.0000000000	        0.0000000000	        0.0000000000	        0.0000000000	       -3.9064763750	       13.6226854877	      -12.4097679709	        0.0000000000	        0.0000000000	        0.0000000000	        0.0000000000	        0.0000000000	        0.0000000000	        0.0000000000	        0.0000000000	
       12.5800000000	        0.0000000000	        0.0000000000	        0.0000000000	        0.0000000000	        0.0000000000	        0.0000000000	       17.5770120078	      -16.8925240246	       -1.8031027520	      -35.1587882075	       -4.4428642472	       21.7013452471	      -29.7908815635	       13.9425742725	        0.0000000000	        0.0000000000	        0.0000000000	        0.0000000000	        0.0000000000	        0.0000000000	        0.0000000000	        0.0000000000	       -3.1258770885	      -13.3933608762	      -24.9012067965	        0.0000000000	        0.0000000000	        0.0000000000	        0.0000000000	        0.0000000000	        0.0000000000	        0.0000000000	        0.0000000000	
       12.5900000000	        0.0000000000	        0.0000000000	        0.0000000000	        0.0000000000	        0.0000000000	        0.0000000000	      -18.2354084995	       28.1216262439	        1.6991363599	      -23.9688981280	       -6.1995260289	       16.8410291171	      -16.4161675448	       45.0927237552	        0.0000000000	        0.0000000000	        0.0000000000	        0.0000000000	        0.0000000000	        0.0000000000	        0.0000000000	        0.0000000000	      -29.5943371471	        8.3786604098	       -1.9495483946	        0.0000000000	        0.0000000000	        0.0000000000	        0.0000000000	        0.0000000000	        0.0000000000	        0.0000000000	        0.0000000000	
       12.6000000000	        0.0000000000	        0.0000000000	        0.0000000000	        0.0000000000	        0.0000000000	        0.0000000000	        8.0690328780	      -18.4467624877	        1.2601762594	      -64.5281529944	       17.2288289609	        7.4851962741	      -13.6045012596	      -19.6003647283	        0.0000000000	        0.0000000000	        0.0000000000	        0.0000000000	        0.0000000000	        0.0000000000	        0.0000000000	        0.0000000000	      -29.9664885149	       28.1108278435	      -25.5030076812	        0.0000000000	        0.0000000000	        0.0000000000	        0.0000000000	        0.0000000000	        0.0000000000	        0.0000000000	        0.0000000000	
       12.6100000000	        0.0000000000	        0.0000000000	        0.0000000000	        0.0000000000	        0.0000000000	        0.0000000000	       22.9561808422	       11.0480029626	       10.7674942073	      -48.0924109331	      -14.4865281987	      -11.1406088522	       26.3022830802	      -19.3954552153	        0.0000000000	        0.0000000000	        0.0000000000	        0.0000000000	        0.0000000000	        0.0000000000	        0.0000000000	        0.0000000000	      -18.6299712276	       26.4608851769	       10.1957171289	        0.0000000000	        0.0000000000	        0.0000000000	        0.0000000000	        0.0000000000	        0.0000000000	        0.0000000000	        0.0000000000	
       12.6200000000	        0.0000000000	        0.0000000000	        0.0000000000	        0.0000000000	        0.0000000000	        0.0000000000	      -41.4730303176	       -1.8741185468	      -18.8611731643	      -72.5698833272	      -11.1213742299	      -21.2749828853	        4.5454438524	       17.2913054444	        0.0000000000	        0.0000000000	        0.0000000000	        0.0000000000	        0.0000000000	        0.0000000000	        0.0000000000	        0.0000000000	      -17.3757024611	      -28.2679226192	       -4.6554787425	        0.0000000000	        0.0000000000	        0.0000000000	        0.0000000000	        0.0000000000	        0.0000000000	        0.0000000000	        0.0000000000	
       12.6300000000	        0.0000000000	        0.0000000000	        0.0000000000	        0.0000000000	        0.0000000000	        0.0000000000	      -27.4527146356	      -25.8878687723	       11.4507778815	      -86.3854557797	      -22.7853137642	      -25.9280736607	       -5.9099361182	      -25.9236276976	        0.0000000000	        0.0000000000	        0.0000000000	        0.0000000000	        0.0000000000	        0.0000000000	        0.0000000000	        0.0000000000	        6.5238952733	       -3.4293898769	        6.7396213576	        0.0000000000	        0.0000000000	        0.0000000000	        0.0000000000	        0.0000000000	        0.0000000000	        0.0000000000	        0.0000000000	
       12.6400000000	        0.0000000000	        0.0000000000	        0.0000000000	        0.0000000000	        0.0000000000	        0.0000000000	      -41.6114384798	       -3.7849404897	      -26.7033623020	      -74.4659440781	      -27.3621311709	       10.4902837725	       10.3369838486	       30.7605793620	        0.0000000000	        0.0000000000	        0.0000000000	        0.0000000000	        0.0000000000	        0.0000000000	        0.0000000000	        0.0000000000	      -24.1949269094	       -0.0435030818	       -0.8066440702	        0.0000000000	        0.0000000000	        0.0000000000	        0.0000000000	        0.0000000000	        0.0000000000	        0.0000000000	        0.0000000000	
       12.6500000000	        0.0000000000	        0.0000000000	        0.0000000000	        0.0000000000	        0.0000000000	        0.0000000000	      -22.1524425443	        6.2049812676	      -11.6201837086	      -72.9202606933	       -5.2230396554	        0.1585580424	      -28.0443271690	       -6.3430592135	        0.0000000000	        0.0000000000	        0.0000000000	        0.0000000000	        0.0000000000	        0.0000000000	        0.0000000000	        0.0000000000	       -4.1653533282	      -26.8820555692	       -3.6344628602	        0.0000000000	        0.0000000000	        0.0000000000	        0.0000000000	        0.0000000000	        0.0000000000	        0.0000000000	        0.0000000000	
